<svg xmlns="http://www.w3.org/2000/svg" viewBox="0 0 760 260" role="img" aria-labelledby="title desc">
  <title id="title">MouthTrainer logo</title>
  <desc id="desc">A speech bubble and smiling mouth beside the MouthTrainer wordmark.</desc>
  <defs>
    <linearGradient id="mouth" x1="0" x2="1" y1="0" y2="1">
      <stop offset="0" stop-color="#D95B76"/>
      <stop offset="1" stop-color="#B43D62"/>
    </linearGradient>
    <linearGradient id="bubble" x1="0" x2="1" y1="0" y2="1">
      <stop offset="0" stop-color="#0B6A7A"/>
      <stop offset="1" stop-color="#0A4F62"/>
    </linearGradient>
  </defs>
  <rect width="760" height="260" rx="52" fill="none"/>
  <path d="M86 35h177c31 0 56 25 56 56v62c0 31-25 56-56 56h-67l-52 35 11-35h-69c-31 0-56-25-56-56V91c0-31 25-56 56-56Z" fill="url(#bubble)"/>
  <path d="M102 105c22 17 45 25 73 25s51-8 73-25c-14 47-39 70-73 70s-59-23-73-70Z" fill="url(#mouth)"/>
  <path d="M122 118c17 7 35 11 53 11s36-4 53-11c-11 13-29 20-53 20s-42-7-53-20Z" fill="#FFF6F7"/>
  <circle cx="122" cy="83" r="8" fill="#9FE0DF"/><circle cx="175" cy="72" r="8" fill="#9FE0DF"/><circle cx="228" cy="83" r="8" fill="#9FE0DF"/>
  <text x="360" y="130" fill="#0B5B68" font-family="Microsoft JhengHei, PingFang TC, Arial, sans-serif" font-size="65" font-weight="800">Mouth</text>
  <text x="360" y="195" fill="#C34B6A" font-family="Microsoft JhengHei, PingFang TC, Arial, sans-serif" font-size="65" font-weight="800">Trainer</text>
</svg>
